<svg xmlns="http://www.w3.org/2000/svg" xml:space="preserve" width="223.863" height="111.236" fill-rule="evenodd" class="icon-icon-0" clip-rule="evenodd" data-fill-palette-color="accent" style="shape-rendering:geometricPrecision;text-rendering:geometricPrecision;image-rendering:optimizeQuality" viewBox="20.872 261.848 958.256 476.152"><path fill="#5d9943" d="M894 297c6 26 22 45 48 56 3-2 5-5 8-7-4 50-4 93-4 131 1 124 2 183-174 238-81-8-135-36-165-95-30-61-37-154-22-290 57-29 119-41 182-45 46-2 92 0 138 5-4 2-7 4-11 7M31 275c66-9 135-16 203-12 68 3 135 17 197 49 3 2 5 4 6 7 41-12 83-12 126 2 0-3 2-7 6-9 62-32 129-46 197-49 68-4 137 3 203 12 6 1 11 6 10 13-11 76-11 138-10 189 1 136 1 200-193 261h-4c-90-9-151-41-185-108-23-45-33-106-32-186-37-49-74-50-110-3 1 82-9 143-32 189-34 67-95 99-185 108h-4C30 677 30 613 31 477c1-51 1-113-10-189-1-7 4-12 10-13m78 22c-6 26-22 45-48 56-4-3-8-8-11-12 4 52 4 97 4 136-1 124-2 183 174 238 81-8 135-36 165-95 30-61 37-154 22-290-57-29-119-41-182-45-45-2-90 0-135 5 4 2 7 4 11 7" data-fill-palette-color="accent"/></svg>